<?xml version="1.0" standalone="no"?>
<!DOCTYPE svg PUBLIC "-//W3C//DTD SVG 20010904//EN"
 "http://www.w3.org/TR/2001/REC-SVG-20010904/DTD/svg10.dtd">
<svg version="1.0" xmlns="http://www.w3.org/2000/svg"
 width="2010.000000pt" height="2010.000000pt" viewBox="0 0 2010.000000 2010.000000"
 preserveAspectRatio="xMidYMid meet">
<metadata>
Created by potrace 1.11, written by Peter Selinger 2001-2013
</metadata>
<g transform="translate(0.000000,2010.000000) scale(0.100000,-0.100000)"
fill="#000000" stroke="none">
<path d="M4960 16327 c-3 -2 -54 -7 -115 -10 -242 -13 -554 -62 -818 -128
-1016 -255 -1892 -862 -2502 -1734 -473 -677 -790 -1550 -860 -2370 -3 -38 -8
-95 -11 -125 -7 -70 -7 -501 0 -560 3 -25 8 -81 11 -125 38 -494 195 -1050
431 -1525 445 -895 1195 -1622 2184 -2119 479 -240 987 -417 1365 -476 204
-32 277 -41 395 -50 36 -3 97 -8 135 -11 92 -8 587 -8 695 0 279 21 450 37
600 57 80 10 165 21 190 25 25 3 70 9 100 14 30 6 73 12 95 15 112 16 466 85
770 149 166 36 757 183 1030 257 128 35 865 245 1050 300 33 9 209 61 390 114
182 54 333 100 337 104 3 3 -62 81 -145 172 -208 227 -289 317 -519 579 -31
36 -66 76 -79 90 -285 322 -932 1096 -1202 1440 -60 76 -206 264 -307 395
-453 588 -965 1024 -1584 1350 -398 209 -858 350 -1246 381 -104 8 -338 8
-411 -1 -198 -22 -383 -62 -534 -115 -131 -46 -360 -161 -478 -240 -103 -70
-316 -239 -317 -252 0 -4 32 4 71 17 157 54 269 70 479 70 161 -1 215 -5 309
-23 493 -99 950 -387 1382 -872 105 -118 202 -242 434 -555 536 -724 796
-1063 1093 -1426 12 -15 19 -30 15 -32 -8 -5 -184 -45 -343 -78 -291 -61 -643
-120 -860 -144 -30 -3 -66 -8 -80 -10 -32 -5 -144 -15 -285 -25 -112 -8 -605
-5 -660 4 -16 3 -82 12 -145 21 -377 52 -891 261 -1310 533 -639 414 -1065
979 -1230 1632 -26 100 -37 161 -65 345 -10 67 -14 435 -5 515 18 167 23 199
42 300 138 738 507 1386 1024 1802 363 292 791 470 1309 544 129 19 538 26
690 12 377 -34 853 -149 1148 -277 27 -12 54 -18 59 -14 6 3 8 2 5 -4 -3 -5 8
-20 26 -33 73 -54 302 -267 442 -411 310 -319 608 -677 1016 -1224 204 -274
205 -275 409 -560 71 -99 142 -198 158 -220 16 -22 118 -166 228 -320 454
-642 898 -1249 1093 -1495 201 -254 306 -385 311 -390 3 -3 59 -70 126 -150
66 -80 127 -152 135 -160 8 -8 32 -35 53 -60 763 -873 1510 -1462 2224 -1754
365 -150 852 -277 1342 -350 50 -8 322 -35 405 -41 87 -6 551 -6 625 0 377 31
635 73 934 155 606 166 1142 446 1626 849 132 109 386 357 475 463 33 39 65
76 71 82 73 75 324 431 424 601 80 135 87 148 165 305 281 560 469 1226 513
1815 9 128 9 645 0 750 -83 925 -439 1765 -1043 2465 -90 104 -298 318 -385
396 -31 27 -74 65 -95 85 -22 19 -92 76 -155 126 -382 301 -793 543 -1258 742
-469 201 -842 307 -1242 356 -74 9 -148 18 -165 20 -56 8 -349 19 -500 19
-929 0 -1975 -195 -3590 -669 -176 -52 -507 -151 -735 -220 -228 -69 -462
-140 -520 -157 -58 -17 -108 -34 -112 -38 -5 -3 7 -22 25 -41 17 -19 84 -91
147 -159 97 -105 178 -193 225 -245 6 -7 46 -51 90 -100 44 -48 85 -93 90 -99
6 -7 33 -36 60 -67 58 -64 73 -80 266 -299 80 -91 244 -280 363 -420 120 -140
228 -266 240 -280 146 -170 569 -692 798 -986 485 -621 1162 -1143 1848 -1427
261 -108 579 -196 805 -223 22 -2 58 -7 80 -11 22 -3 126 -7 230 -8 201 -3
328 9 530 49 220 44 487 157 709 300 129 83 392 301 341 282 -307 -115 -616
-132 -950 -54 -295 68 -609 229 -895 458 -130 104 -387 360 -502 500 -93 112
-238 301 -573 746 -281 374 -551 719 -735 942 -83 101 -149 186 -146 189 7 7
334 82 536 122 184 38 530 97 615 106 33 3 89 10 125 15 36 5 97 12 135 15 39
3 111 10 160 15 93 9 647 6 700 -3 28 -5 103 -16 150 -23 20 -2 107 -18 153
-28 114 -24 345 -104 530 -182 965 -410 1613 -1094 1827 -1930 60 -232 79
-388 80 -639 0 -276 -23 -467 -86 -724 -144 -578 -407 -1061 -783 -1437 -334
-333 -736 -555 -1214 -670 -91 -22 -130 -26 -286 -27 -190 -2 -358 6 -479 23
-40 6 -90 13 -112 16 -302 42 -754 173 -980 283 -345 167 -668 414 -1076 821
-536 534 -1033 1152 -1944 2420 -136 190 -281 388 -322 440 -41 52 -127 165
-190 250 -246 330 -535 693 -776 977 -167 197 -411 456 -642 682 -498 488
-1050 877 -1545 1089 -373 160 -893 303 -1350 371 -274 40 -416 52 -725 57
-149 3 -273 3 -275 1z"/>
<path d="M2988 7335 c-2 -2 -28 -6 -58 -10 -250 -32 -546 -201 -802 -458 -217
-219 -352 -416 -476 -693 -27 -60 -59 -131 -72 -159 -56 -125 -61 -138 -119
-341 -79 -274 -100 -396 -94 -537 13 -315 143 -601 349 -764 112 -88 217 -121
375 -118 63 1 128 5 144 8 17 4 50 9 75 12 125 17 361 76 600 149 130 41 137
42 159 22 56 -51 258 -134 392 -162 137 -28 465 -39 594 -20 162 25 202 32
245 41 14 3 34 7 45 9 64 13 204 53 316 90 l128 44 28 -37 c82 -107 220 -164
383 -156 148 7 270 65 628 299 l102 67 64 -62 c97 -93 210 -173 321 -228 135
-67 191 -80 323 -76 148 6 174 9 345 40 59 11 234 56 282 72 244 81 256 86
443 174 99 47 122 54 123 41 9 -192 73 -281 226 -317 47 -12 190 -12 240 -1
63 14 118 55 190 143 30 37 58 70 62 73 3 3 26 30 51 60 25 30 49 60 55 66 5
6 120 145 255 307 189 229 250 296 268 296 18 1 22 -3 18 -16 -17 -54 -56
-260 -64 -333 -10 -95 -5 -206 12 -289 29 -136 110 -247 215 -294 73 -33 250
-30 436 8 17 4 89 22 160 41 72 20 140 38 151 41 21 5 21 4 7 -49 -10 -39 -12
-87 -8 -184 3 -72 7 -139 9 -150 2 -10 7 -39 10 -64 48 -350 201 -560 459
-630 65 -18 109 -23 212 -23 167 -1 258 19 395 85 93 45 115 61 197 144 51 52
93 100 93 108 0 8 4 16 9 18 4 1 27 41 49 88 99 206 141 473 101 645 -27 114
-126 364 -185 467 -15 27 -25 50 -23 52 2 2 65 6 139 10 74 3 153 8 175 11 22
3 76 10 120 15 77 10 111 15 165 25 14 3 43 8 65 11 22 3 43 8 46 10 3 2 -4
-27 -17 -65 -26 -78 -42 -246 -32 -338 21 -193 163 -297 415 -302 118 -3 215
14 354 59 148 49 275 111 418 205 63 41 116 74 117 72 1 -1 17 -33 35 -72 43
-94 132 -183 214 -215 52 -21 78 -24 195 -24 170 -1 297 15 455 56 22 5 48 12
57 14 10 2 26 6 36 8 46 10 113 30 223 66 l121 40 41 -33 c44 -34 61 -44 148
-87 64 -32 174 -68 239 -78 54 -8 304 -8 340 0 14 3 43 9 65 14 57 10 187 58
277 102 l77 37 -6 -25 c-4 -14 -16 -56 -27 -93 l-21 -69 -95 -52 c-52 -28
-110 -60 -128 -71 -68 -40 -428 -279 -458 -304 -17 -14 -51 -42 -75 -61 -65
-52 -294 -287 -344 -353 -77 -101 -100 -159 -100 -257 0 -101 21 -153 88 -220
53 -53 159 -107 246 -125 9 -2 36 -8 61 -13 149 -34 372 -37 559 -7 70 10 211
54 278 85 202 93 372 283 452 505 17 47 32 95 35 107 4 25 19 100 21 108 2 5
14 68 22 105 2 11 15 79 28 151 28 149 51 212 89 242 15 11 131 62 259 113
210 83 271 111 403 184 32 18 45 20 60 12 54 -30 218 -42 329 -23 22 4 55 2
75 -5 19 -6 51 -15 70 -19 19 -5 55 -14 80 -20 25 -6 52 -13 60 -15 8 -2 51
-10 94 -19 44 -9 82 -19 86 -21 13 -8 138 -18 208 -16 101 2 269 19 353 36 13
3 40 8 59 11 75 12 291 68 401 104 260 86 418 188 425 275 5 54 -50 120 -122
148 -53 20 -169 16 -239 -8 -27 -9 -122 -52 -210 -96 -154 -75 -272 -121 -344
-134 -19 -3 -37 -8 -41 -10 -24 -15 -214 -15 -300 -1 -127 22 -280 58 -280 67
0 15 41 51 185 162 173 134 725 595 770 644 22 24 42 34 75 39 53 7 149 41
168 58 7 7 15 44 18 82 5 58 2 74 -15 101 -34 54 -65 68 -151 67 -630 -12
-588 -15 -810 62 -125 43 -144 47 -245 49 -326 8 -560 -137 -650 -404 -42
-122 -20 -201 57 -201 51 0 141 55 233 142 22 21 48 41 58 44 9 3 17 9 17 14
0 8 16 14 80 30 19 5 94 10 165 10 113 1 141 -2 212 -24 120 -36 120 -37 76
-72 -20 -16 -112 -92 -203 -169 -92 -77 -189 -158 -216 -180 -26 -22 -100 -84
-163 -137 -64 -54 -118 -98 -121 -98 -4 0 -24 36 -45 80 -21 44 -40 80 -42 80
-1 0 -19 -17 -41 -37 -207 -203 -453 -387 -634 -476 -94 -46 -199 -89 -205
-84 -1 2 2 32 8 68 10 67 13 86 24 159 4 25 8 56 10 70 3 14 7 52 10 85 7 77
39 203 71 280 31 73 64 163 70 190 11 46 20 173 19 270 -1 92 -4 108 -25 138
-25 37 -65 65 -103 73 -12 3 -78 5 -147 5 -147 -1 -217 11 -262 45 -18 13 -56
35 -84 49 -80 40 -232 40 -436 0 -58 -11 -238 -79 -321 -121 -279 -141 -446
-303 -632 -609 -79 -131 -123 -226 -136 -295 -6 -36 -13 -69 -14 -75 -3 -12
-228 -87 -330 -111 -97 -22 -193 -25 -227 -8 -39 20 -50 47 -55 138 -5 80 -4
85 92 396 128 415 124 399 132 522 6 118 3 128 -51 153 -59 27 -120 37 -225
37 -112 0 -145 -4 -227 -27 -70 -20 -95 -47 -123 -135 -84 -262 -275 -823
-293 -863 -71 -156 -331 -278 -456 -213 -36 19 -57 44 -72 87 -14 39 -24 -2
157 604 85 285 75 251 107 375 l24 95 -22 23 c-53 55 -268 73 -389 33 -173
-58 -291 -208 -351 -445 -14 -54 -26 -99 -28 -101 -9 -8 -355 -79 -433 -90
-53 -6 -93 -12 -130 -18 -16 -3 -66 -8 -110 -12 -44 -4 -87 -8 -95 -10 -8 -2
-71 -6 -140 -9 -242 -13 -285 -16 -337 -21 -29 -2 -53 -3 -53 -2 0 1 46 94
103 207 113 223 167 353 167 399 0 42 -48 87 -102 97 -48 8 -195 8 -273 -1
-97 -11 -180 -44 -228 -90 -90 -86 -181 -292 -274 -620 -36 -126 -75 -264 -87
-304 l-21 -75 -76 -26 c-42 -15 -100 -39 -131 -53 -75 -36 -191 -61 -245 -53
-60 8 -96 36 -121 93 -37 89 -33 194 14 392 14 58 27 113 29 121 7 30 56 206
79 285 35 119 20 198 -50 268 -53 54 -99 69 -217 73 -129 5 -235 -14 -322 -57
-67 -33 -114 -72 -205 -174 -35 -38 -79 -88 -99 -110 -71 -78 -127 -151 -175
-224 -66 -101 -113 -151 -144 -151 -26 0 -26 -3 -7 90 3 14 8 39 11 55 3 17
18 84 34 150 50 206 53 233 34 295 -29 98 -118 137 -289 127 -156 -8 -260 -68
-306 -174 -64 -147 -141 -448 -185 -723 -7 -44 -14 -52 -14 -16 l0 28 -32 -22
c-141 -92 -531 -249 -740 -296 -10 -2 -28 -6 -40 -9 -75 -18 -121 -23 -183
-21 -80 3 -131 28 -245 122 -74 60 -190 177 -190 190 0 11 65 52 307 196 208
123 348 195 513 264 63 26 129 57 146 68 71 46 100 132 70 210 -52 136 -243
169 -467 83 -149 -57 -581 -275 -671 -338 -14 -11 -29 -19 -32 -19 -10 0 -114
-69 -121 -80 -3 -5 -10 -10 -14 -10 -5 0 -60 66 -122 148 -62 81 -118 152
-124 158 -5 6 -21 25 -35 42 -24 30 -50 45 -34 20 4 -7 3 -8 -4 -4 -7 4 -12
11 -12 15 0 5 -20 42 -45 83 -36 60 -51 76 -82 87 -37 14 -154 17 -200 6 -13
-3 -33 -7 -44 -10 -131 -28 -279 -117 -279 -167 0 -10 7 -33 16 -51 18 -36
160 -250 186 -282 108 -132 234 -310 263 -372 l23 -52 -71 -63 c-40 -35 -88
-78 -107 -97 -53 -50 -141 -116 -176 -130 -17 -7 -44 -10 -60 -7 -16 2 -33 5
-38 5 -5 1 17 15 48 31 63 34 196 118 196 124 0 2 -46 31 -102 65 -57 33 -134
80 -172 103 l-70 43 -133 -67 c-181 -90 -509 -216 -633 -243 -8 -2 -42 -10
-75 -18 -64 -17 -84 -20 -214 -41 -118 -19 -289 -18 -354 0 -58 17 -131 60
-167 99 -27 29 -34 25 110 55 58 11 112 23 120 25 220 58 429 146 575 242 100
67 243 214 280 288 120 240 -125 471 -541 510 -241 23 -461 -9 -660 -96 -180
-79 -335 -205 -436 -355 -77 -115 -165 -303 -183 -391 -9 -43 -7 -134 4 -169
5 -17 6 -37 2 -43 -4 -6 -43 -25 -87 -42 -178 -69 -372 -121 -461 -123 -71 -1
-93 14 -137 93 -50 94 -45 162 25 305 33 68 126 177 344 406 50 52 133 142
185 199 52 57 100 109 106 115 46 49 204 230 236 272 12 16 28 35 36 43 31 32
137 178 202 278 83 127 147 254 190 381 37 109 45 157 44 277 -1 105 -23 167
-81 227 -37 38 -123 82 -183 94 -35 6 -237 14 -242 9z m-102 -398 c46 -146
-120 -502 -422 -902 -54 -71 -102 -135 -108 -141 -6 -6 -27 -30 -46 -54 -60
-75 -130 -155 -211 -244 l-47 -50 13 81 c7 45 16 91 20 102 3 11 9 33 11 48 3
16 30 105 61 198 62 190 215 508 323 672 97 148 230 270 324 298 54 17 75 15
82 -8z m13203 -1452 c-15 -41 -49 -130 -73 -197 -25 -68 -57 -154 -71 -192
-14 -37 -28 -85 -31 -105 -9 -58 -43 -152 -77 -211 -36 -64 -118 -150 -168
-175 -124 -65 -259 -49 -336 39 -74 83 -77 238 -9 361 57 101 248 316 357 401
122 94 265 149 396 153 l41 1 -29 -75z m-12019 48 c31 -13 65 -51 74 -80 23
-75 16 -100 -46 -162 -97 -98 -225 -166 -428 -229 -43 -14 -155 -32 -194 -32
l-29 0 5 58 c8 88 99 254 184 338 56 55 157 100 259 117 42 6 151 0 175 -10z
m6990 -998 c65 -194 74 -237 73 -375 -2 -195 -22 -310 -68 -399 -44 -84 -83
-116 -154 -126 -90 -13 -166 66 -197 205 -6 28 -5 259 1 305 2 17 7 57 10 90
6 74 30 209 56 318 8 35 18 52 35 59 23 11 24 15 24 115 0 57 4 123 9 146 26
112 17 115 88 -30 35 -73 91 -212 123 -308z m4810 -714 c0 -6 -7 -38 -15 -73
-8 -35 -17 -79 -20 -98 -24 -142 -162 -410 -254 -493 -85 -76 -206 -112 -319
-94 -103 17 -105 69 -6 217 129 194 324 387 489 486 113 67 125 72 125 55z"/>
<path d="M11218 6585 c-2 -2 -28 -5 -58 -6 -311 -10 -528 -187 -441 -357 58
-112 185 -161 430 -166 252 -5 456 75 516 201 21 44 27 115 13 154 -31 90
-171 155 -353 166 -44 2 -85 6 -92 8 -6 2 -13 2 -15 0z"/>
</g>
</svg>
